<?xml version="1.0" encoding="UTF-8"?>
<svg version="1.1" xmlns="http://www.w3.org/2000/svg" width="360" height="286">
<path d="M0 0 C118.8 0 237.6 0 360 0 C360 94.38 360 188.76 360 286 C241.2 286 122.4 286 0 286 C0 191.62 0 97.24 0 0 Z " fill="#F8DCC6" transform="translate(0,0)"/>
<path d="M0 0 C118.8 0 237.6 0 360 0 C360 94.38 360 188.76 360 286 C336.9 286 313.8 286 290 286 C291.98 282.7 293.96 279.4 296 276 C297.03014823 270.84925887 296.6861541 269.66172015 295 265 C295 263.68 295 262.36 295 261 C284.77547263 269.18732844 284.77547263 269.18732844 278 280 C276 280.875 276 280.875 274 281 C273.34 280.67 272.68 280.34 272 280 C271.51716411 275.94417849 271.75766545 274.34924685 274.125 270.9375 C276.83714186 267.99551561 279.8968568 265.52130385 283 263 C285.28142197 260.77163436 287.51460611 258.52134899 289.6875 256.1875 C291 255 291 255 293 255 C292.835 254.484375 292.67 253.96875 292.5 253.4375 C291.84951 250.26636124 291.9379266 247.22781666 292 244 C288.49317939 245.47286466 285.07827896 246.96012204 281.6875 248.6875 C279 250 279 250 277 250 C276.67 250.99 276.34 251.98 276 253 C274.35 252.67 272.7 252.34 271 252 C270.6875 249.75 270.6875 249.75 271 247 C273.51953125 244.828125 273.51953125 244.828125 276 243 C274.96101563 242.69707031 273.92203125 242.39414063 272.8515625 242.08203125 C254.86411764 236.73289439 241.02040343 228.96004182 231.34375 212.1171875 C222.69384535 195.53820359 220.64794708 175.9542485 225.9375 157.8125 C232.31971887 138.36058642 245.49002022 124.02952583 263 114 C263.66 113.67 264.32 113.34 265 113 C264.67 112.34 264.34 111.68 264 111 C273.57565812 106.27544621 282.60510406 106.58832095 293 107 C292.97679687 106.01902344 292.95359375 105.03804688 292.9296875 104.02734375 C292.4272258 73.31581076 292.4272258 73.31581076 299.875 64.875 C302.71679234 63.70485021 304.06493263 64.13623932 307 65 C309.39453125 66.63671875 309.39453125 66.63671875 311.8125 68.6875 C314.78868212 71.17643106 317.74430971 73.54893262 320.9375 75.75 C329.25055266 81.92155633 336.04169307 90.62616324 342 99 C332.02209456 76.96545882 312.67096043 59.37902559 293.26904297 45.63696289 C291.5973873 44.43097502 289.96612192 43.1685188 288.35986328 41.87670898 C280.84600047 36.19745051 275.10713455 34.92932444 265.76382446 35.14089966 C261.96362383 35.22369778 258.16391926 35.16648087 254.36328125 35.1328125 C253.54810532 35.12909134 252.73292938 35.12537018 251.89305115 35.12153625 C242.18572377 35.04901744 232.51592031 34.41786706 222.83294678 33.76577759 C219.8852736 33.5673977 216.9371075 33.3783873 213.98876953 33.19018555 C205.99907773 32.6647298 198.058343 32.06941843 190.12109375 31.00390625 C159.1150683 26.90618501 127.28133789 26.60829275 96.02526855 26.19561768 C93.0284587 26.15444778 90.03395564 26.08771196 87.03820801 25.99822998 C68.10175215 24.72750571 68.10175215 24.72750571 51.46875 32.15625 C49.5108861 34.02476425 47.78148889 35.95057802 46 38 C44.68228538 39.19197621 43.3517284 40.37017716 42 41.5234375 C40.99465868 42.46830716 39.99425298 43.41846936 39 44.375 C37.98053213 45.34258655 36.95970741 46.30874559 35.9375 47.2734375 C35.45531006 47.7286377 34.97312012 48.18383789 34.47631836 48.65283203 C32.96161467 50.03502733 31.40273094 51.34154511 29.81640625 52.640625 C27.6144487 54.48526073 25.77510408 56.19444474 23.9375 58.375 C23.07125 59.39207031 23.07125 59.39207031 22.1875 60.4296875 C21.465625 61.27789062 20.74375 62.12609375 20 63 C18.95982641 64.19140936 17.91801982 65.38139407 16.875 66.5703125 C11.33762408 72.89408953 5.97966885 79.22211739 1 86 C0.67 86 0.34 86 0 86 C0 57.62 0 29.24 0 0 Z " fill="#8CB3D0" transform="translate(0,0)"/>
<path d="M0 0 C118.8 0 237.6 0 360 0 C360 39.93 360 79.86 360 121 C352.4451194 113.4451194 346.81921711 105.32673003 341.25 96.25 C335.77265927 87.48406097 329.949772 79.6269862 323 72 C322.31679688 71.18660156 321.63359375 70.37320313 320.9296875 69.53515625 C315.88312931 63.55896892 310.16288999 58.7915663 304 54 C302.94246219 53.16437392 301.88517594 52.32842938 300.828125 51.4921875 C296.93669506 48.42232681 296.93669506 48.42232681 292.97167969 45.44946289 C291.43600633 44.3205262 289.93857588 43.13950432 288.45800781 41.93920898 C280.90486017 36.23121641 275.1527842 34.92829073 265.76382446 35.14089966 C261.96362383 35.22369778 258.16391926 35.16648087 254.36328125 35.1328125 C253.54810532 35.12909134 252.73292938 35.12537018 251.89305115 35.12153625 C242.18572377 35.04901744 232.51592031 34.41786706 222.83294678 33.76577759 C219.8852736 33.5673977 216.9371075 33.3783873 213.98876953 33.19018555 C205.99907773 32.6647298 198.058343 32.06941843 190.12109375 31.00390625 C159.1150683 26.90618501 127.28133789 26.60829275 96.02526855 26.19561768 C93.0284587 26.15444778 90.03395564 26.08771196 87.03820801 25.99822998 C68.10175215 24.72750571 68.10175215 24.72750571 51.46875 32.15625 C49.5108861 34.02476425 47.78148889 35.95057802 46 38 C44.68228538 39.19197621 43.3517284 40.37017716 42 41.5234375 C40.99465868 42.46830716 39.99425298 43.41846936 39 44.375 C37.98053213 45.34258655 36.95970741 46.30874559 35.9375 47.2734375 C35.45531006 47.7286377 34.97312012 48.18383789 34.47631836 48.65283203 C32.96161467 50.03502733 31.40273094 51.34154511 29.81640625 52.640625 C27.6144487 54.48526073 25.77510408 56.19444474 23.9375 58.375 C23.07125 59.39207031 23.07125 59.39207031 22.1875 60.4296875 C21.465625 61.27789062 20.74375 62.12609375 20 63 C18.95982641 64.19140936 17.91801982 65.38139407 16.875 66.5703125 C11.33762408 72.89408953 5.97966885 79.22211739 1 86 C0.67 86 0.34 86 0 86 C0 57.62 0 29.24 0 0 Z " fill="#260601" transform="translate(0,0)"/>
<path d="M0 0 C7.58967644 4.4007882 13.55802755 11.39476762 19.21655273 17.96484375 C21.56579944 20.64565423 24.02532878 23.20978437 26.49243164 25.78173828 C40.27327768 40.18987999 52.30031357 54.64690889 52.453125 75.50805664 C52.21148218 85.86036014 47.7400298 95.55860925 40.5234375 102.96875 C29.01256744 112.23446584 14.80456686 117.43077693 0 116 C-11.91518915 113.87544919 -20.71684001 107.43871407 -28 98 C-28.47179688 97.41992188 -28.94359375 96.83984375 -29.4296875 96.2421875 C-41.32172277 79.7706107 -41.97452276 52.64932312 -39.17749023 33.26489258 C-37.37608004 22.3949786 -34.06853079 12.84056161 -25 6 C-17.11061783 1.37684607 -9.24453354 -2.1341547 0 0 Z " fill="#FADECA" transform="translate(80,124)"/>
<path d="M0 0 C0 47.85 0 95.7 0 145 C-14.52 145 -29.04 145 -44 145 C-53 136 -53 136 -54 131 C-52.7421875 128.71875 -52.7421875 128.71875 -50.875 126.5 C-50.23175781 125.72269531 -49.58851563 124.94539063 -48.92578125 124.14453125 C-47.36076788 122.4017476 -45.77466141 120.78124102 -44.0625 119.1875 C-41.54265809 117.01602429 -41.54265809 117.01602429 -42 113 C-46.55951545 113.46232849 -48.32096386 114.92052608 -51.25 118.375 C-51.93578125 119.16648437 -52.6215625 119.95796875 -53.328125 120.7734375 C-55.16971485 122.98121109 -55.16971485 122.98121109 -56 126 C-56.66 126 -57.32 126 -58 126 C-60.68108108 118.79459459 -60.68108108 118.79459459 -60 115 C-58.33333333 113.33333333 -56.66666667 111.66666667 -55 110 C-54.12010026 106.81849108 -54.12010026 106.81849108 -54 104 C-57.72614153 105.11854586 -57.72614153 105.11854586 -60 108 C-60.66 108 -61.32 108 -62 108 C-62 105.03 -62 102.06 -62 99 C-58.535 98.01 -58.535 98.01 -55 97 C-55 95.68 -55 94.36 -55 93 C-57.31 92.67 -59.62 92.34 -62 92 C-62.30188844 84.41924578 -61.45017486 77.43112202 -60 70 C-59.86577637 69.26475098 -59.73155273 68.52950195 -59.59326172 67.77197266 C-56.16467242 49.04192725 -56.16467242 49.04192725 -51 41 C-50.22849609 39.77990234 -50.22849609 39.77990234 -49.44140625 38.53515625 C-40.07463284 24.49581228 -18.86375093 0 0 0 Z " fill="#D2CCC7" transform="translate(360,141)"/>
<path d="M0 0 C0.99 0.99 0.99 0.99 2 2 C1.92394531 2.78375 1.84789063 3.5675 1.76953125 4.375 C1.84558594 5.24125 1.92164062 6.1075 2 7 C4.43587833 9.14419415 4.43587833 9.14419415 7.6875 11 C26.67217676 23.24201478 41.3442654 43.05237321 47 65 C50.10260268 82.20534215 46.86806705 97.92923838 37.62109375 112.6875 C27.26266538 127.46386047 9.0460814 135.11083517 -8.14453125 138.5703125 C-21.26218771 140.54424165 -35.24744929 137.15957139 -46.1875 129.6875 C-47.80486462 128.47575206 -49.40979057 127.24717094 -51 126 C-51.68835938 125.48824219 -52.37671875 124.97648438 -53.0859375 124.44921875 C-66.85116083 113.48600728 -72.97869687 96.82464866 -76 80 C-78.43435323 55.51139721 -75.28774285 27.66367688 -59.1875 8 C-44.31534016 -7.4463745 -18.44040283 -10.92764612 0 0 Z M-54.6328125 20.2109375 C-64.96531851 38.33922648 -62.37310698 65.21106208 -57.47827148 84.56079102 C-53.8244815 97.82001189 -46.73929532 108.85080409 -34.93359375 116.3046875 C-24.70461186 121.78950362 -13.67631291 122.56493769 -2.5625 119.4375 C11.69194198 114.54928608 21.78181138 108.15445123 28.5 94.4375 C33.10257779 82.7229938 32.20780976 71.7954616 27.46484375 60.16796875 C22.95886753 50.42304419 16.92802245 43.31825808 9.56689453 35.64355469 C7.09078881 33.04630575 4.67088348 30.39861137 2.25 27.75 C1.79351074 27.25419434 1.33702148 26.75838867 0.86669922 26.24755859 C-1.8411995 23.30017917 -4.4627716 20.2925679 -7.0625 17.25 C-14.27202853 8.93107224 -14.27202853 8.93107224 -23.953125 4.36328125 C-36.8731636 3.88292084 -47.03605541 9.92441953 -54.6328125 20.2109375 Z " fill="#280A01" transform="translate(101,119)"/>
<path d="M0 0 C2.30020831 2.18977349 2.3691154 3.28785423 2.53295898 6.42260742 C2.59499512 7.37393555 2.65703125 8.32526367 2.72094727 9.30541992 C2.77105957 10.33022461 2.82117188 11.3550293 2.87280273 12.41088867 C3.01279546 14.5713438 3.15747389 16.73149947 3.30639648 18.89135742 C3.38229004 20.00945801 3.45818359 21.12755859 3.53637695 22.27954102 C3.98742914 27.950256 4.70276694 33.58316097 5.43530273 39.22338867 C5.57073486 40.27357178 5.70616699 41.32375488 5.84570312 42.40576172 C6.16302987 44.84555632 6.484236 47.28474927 6.81030273 49.72338867 C5.82030273 49.06338867 4.83030273 48.40338867 3.81030273 47.72338867 C-0.88810957 45.69452881 -4.2173771 45.40994561 -9.18969727 46.72338867 C-11.56231569 48.56025455 -12.07027415 49.91131149 -12.50219727 52.84838867 C-12.71080672 56.81196827 -12.74530708 58.98257559 -10.31469727 62.22338867 C-6.73570068 64.7497392 -4.59325622 65.1468078 -0.18969727 64.72338867 C3.69541042 62.59038837 6.40918792 60.45845615 8.81030273 56.72338867 C10.33659115 63.21011446 9.16195789 67.44224406 7.06420898 73.68432617 C5.43670348 78.70300849 4.2911593 83.83210469 3.12280273 88.97338867 C2.90865723 89.89587402 2.69451172 90.81835938 2.47387695 91.76879883 C1.20162253 97.41639196 0.34560919 102.95854989 -0.18969727 108.72338867 C-15.69691627 109.39196338 -28.57174236 107.70358077 -41.18969727 97.72338867 C-52.61250577 87.04257457 -57.11606223 74.92139413 -57.64526367 59.48291016 C-57.93871182 39.60744124 -52.27442592 23.55826288 -38.37329102 8.90698242 C-35.42387832 5.95756972 -32.57634802 3.16810472 -29.18969727 0.72338867 C-28.17069336 -0.0577832 -28.17069336 -0.0577832 -27.13110352 -0.85473633 C-19.28980034 -5.87951745 -7.97796268 -4.65121718 0 0 Z " fill="#FCE2CD" transform="translate(292.189697265625,119.276611328125)"/>
<path d="M0 0 C1.81679098 -0.02594058 3.63470947 -0.0024685 5.45059204 0.06056213 C6.4463324 0.05924789 7.44207275 0.05793365 8.46798706 0.05657959 C11.74867328 0.06283411 15.02471729 0.13274871 18.30459595 0.2033844 C20.58286017 0.2201764 22.86115696 0.23298477 25.13946533 0.24197388 C31.12771791 0.27629089 37.11399673 0.36465811 43.10147095 0.46430969 C49.21448057 0.55647937 55.32781008 0.59750369 61.4413147 0.64283752 C73.43046181 0.73927795 85.41814583 0.89282534 97.40615845 1.08229065 C97.45627075 2.00340637 97.50638306 2.92452209 97.55801392 3.87355042 C97.75097274 7.36846797 97.94922177 10.86300924 98.15078735 14.35743713 C98.23616419 15.85536893 98.31957262 17.35341453 98.40078735 18.85157776 C99.11278893 31.94449563 100.06390566 44.99448745 103.46865845 57.70729065 C104.5584035 61.81510285 105.62916334 65.90093552 106.40615845 70.08229065 C105.74615845 70.08229065 105.08615845 70.08229065 104.40615845 70.08229065 C103.20862983 68.64465604 102.07393997 67.1544995 100.96865845 65.64479065 C96.42445124 59.83376309 91.24043209 55.54737361 85.40615845 51.08229065 C84.31280413 50.22537296 83.22038047 49.36726672 82.1288147 48.5080719 C76.06472506 43.75972524 69.91072239 39.21697471 63.40615845 35.08229065 C63.73615845 34.09229065 64.06615845 33.10229065 64.40615845 32.08229065 C63.66752563 31.82318909 62.92889282 31.56408752 62.1678772 31.2971344 C58.58194754 29.71973111 56.08875618 27.41506838 53.1756897 24.8361969 C49.17060254 22.29983 44.96241302 21.29091467 40.40615845 20.08229065 C39.44975464 19.8195636 38.49335083 19.55683655 37.50796509 19.28614807 C34.5200407 18.47166165 31.52675441 17.68055254 28.53115845 16.89479065 C27.51279907 16.62215393 26.4944397 16.34951721 25.44522095 16.06861877 C24.46553345 15.81145081 23.48584595 15.55428284 22.47647095 15.2893219 C21.59749146 15.05704895 20.71851196 14.824776 19.81289673 14.58546448 C17.1633966 13.94586122 17.1633966 13.94586122 13.40615845 14.08229065 C10.06695547 13.85455115 6.73775317 13.52617186 3.40615845 13.20729065 C2.05264282 13.08934143 2.05264282 13.08934143 0.67178345 12.9690094 C-0.1996228 12.88522034 -1.07102905 12.80143127 -1.96884155 12.71510315 C-3.15606812 12.60513 -3.15606812 12.60513 -4.36727905 12.49293518 C-6.74598979 12.05422998 -8.46271243 11.19814868 -10.59384155 10.08229065 C-5.8954348 0.61652676 -5.8954348 0.61652676 0 0 Z " fill="#F5D6C1" transform="translate(234.59384155273438,-1.0822906494140625)"/>
<path d="M0 0 C3.56173192 0.76276571 5.18995483 1.80634247 7.75 4.4375 C8.67039062 5.36369141 8.67039062 5.36369141 9.609375 6.30859375 C11 8 11 8 11 10 C11.66 10 12.32 10 13 10 C16 13.46153846 16 13.46153846 16 16 C16.66 16 17.32 16 18 16 C18.74443359 17.34191406 18.74443359 17.34191406 19.50390625 18.7109375 C23.11266647 25.15675084 26.83404248 31.36114443 31.13671875 37.375 C43.01817521 54.11365564 43.01817521 54.11365564 45 64 C44.20078125 64.44988281 43.4015625 64.89976562 42.578125 65.36328125 C33.10211401 70.91319848 25.37596112 77.3490779 17.78515625 85.328125 C16 87 16 87 14 87 C13.773125 87.515625 13.54625 88.03125 13.3125 88.5625 C11.51782382 91.89547005 9.50034985 95.14703671 7 98 C6.34 98 5.68 98 5 98 C0.43397683 73.78964059 -2.14082892 50.15473504 -2.25 25.5 C-2.2554483 24.74297791 -2.26089661 23.98595581 -2.26651001 23.20599365 C-2.30935807 15.2379898 -2.19403373 7.73135694 0 0 Z " fill="#DEDAD4" transform="translate(301,76)"/>
<path d="M0 0 C21.84147495 -0.12032643 21.84147495 -0.12032643 31.13476562 -0.14648438 C37.48192851 -0.16443429 43.82896186 -0.18569383 50.17602539 -0.22631836 C55.29181528 -0.25885805 60.4074663 -0.27684167 65.52335167 -0.28463173 C67.47744623 -0.29018494 69.431533 -0.30102868 71.38556862 -0.31719017 C74.11764721 -0.33889283 76.84914824 -0.34196994 79.58129883 -0.34057617 C80.39337799 -0.351362 81.20545715 -0.36214783 82.04214478 -0.3732605 C87.54344507 -0.34279011 87.54344507 -0.34279011 90.02616882 1.52128601 C90.34753311 2.00926163 90.6688974 2.49723724 91 3 C89.71029297 3.23783203 89.71029297 3.23783203 88.39453125 3.48046875 C76.10004664 5.90718818 65.2967493 10.1712771 54.125 15.8125 C52.92967651 16.39753296 52.92967651 16.39753296 51.71020508 16.99438477 C46.56325743 19.67611024 43.18517017 22.67784897 39.52392578 27.16870117 C37.68855728 29.37426015 35.67554162 31.04288431 33.375 32.75 C22.51634065 41.16256866 11.71543526 50.94056328 3 61.5625 C2.34 62.366875 1.68 63.17125 1 64 C0.67 64 0.34 64 0 64 C0 42.88 0 21.76 0 0 Z " fill="#D6B79C" transform="translate(0,0)"/>
<path d="M0 0 C0 3.63 0 7.26 0 11 C-0.7734375 10.86722656 -1.546875 10.73445313 -2.34375 10.59765625 C-4.50827891 10.23065073 -6.67513171 9.87716965 -8.84375 9.53515625 C-12 9 -12 9 -14.15625 8.43359375 C-19.86842759 7.09026385 -24.0111617 9.26187622 -28.91015625 11.94921875 C-43.26730219 21.47829791 -52.57112243 37.12253632 -56.58984375 53.68237305 C-59.52329026 70.25809192 -57.40806847 87.02105466 -48.16015625 101.0859375 C-41.55597941 109.99500789 -31.35147616 116.38718774 -20.421875 118.69921875 C-14.31067415 119.45819047 -8.14834054 119.71646002 -2 120 C-2 122.97 -2 125.94 -2 129 C-9.35983898 133.22285843 -14.6567457 135.29283373 -23.03515625 133.265625 C-39.91658903 128.44799974 -52.78971201 119.54998239 -61.65625 104.1171875 C-70.30615465 87.53820359 -72.35205292 67.9542485 -67.0625 49.8125 C-60.68028113 30.36058642 -47.50997978 16.02952583 -30 6 C-29.34 5.67 -28.68 5.34 -28 5 C-28.495 4.01 -28.495 4.01 -29 3 C-21.21170613 -0.69613947 -8.33143089 -4.16571545 0 0 Z " fill="#2B0F02" transform="translate(293,108)"/>
<path d="M0 0 C4.39454007 3.3436718 6.57184002 6.93815832 7.3359375 12.40234375 C7.48711894 22.21401913 5.59860527 33.40262625 -1 41 C-4.30859375 42.15625 -4.30859375 42.15625 -8 42 C-10.6911597 40.59643383 -12.71578681 39.33664247 -15.0625 37.5 C-15.67448242 37.04093262 -16.28646484 36.58186523 -16.91699219 36.10888672 C-22.78870802 31.60199062 -28.88344886 26.43454093 -30.44140625 18.8515625 C-30.62594105 15.45850324 -30.73293212 13.00615533 -28.6796875 10.1875 C-23.27354152 5.33893858 -16.80612428 3.21594744 -10 1 C-6.77659223 -0.61170388 -3.48558081 -0.59542551 0 0 Z " fill="#270801" transform="translate(187,199)"/>
<path d="M0 0 C-0.32484375 1.1446875 -0.6496875 2.289375 -0.984375 3.46875 C-2.58517531 10.72043198 -2.30314466 18.11485728 -2.25 25.5 C-2.24656586 26.2758847 -2.24313171 27.05176941 -2.23959351 27.85116577 C-2.114606 52.01903589 0.69743565 75.2621378 5 99 C4.34 99 3.68 99 3 99 C3 98.01 3 97.02 3 96 C2.01 96 1.02 96 0 96 C-0.391875 97.2375 -0.78375 98.475 -1.1875 99.75 C-2.93520771 104.45216599 -5.51848576 106.75924288 -10 109 C-15.26883876 109.59873168 -17.8846468 108.25400021 -22 105 C-23.73561969 101.52876063 -23.45883955 97.79525855 -23 94 C-21.4375 91 -21.4375 91 -19 89 C-13.25028969 87.2642384 -10.12394542 88.43802729 -5 91 C-4.67 91 -4.34 91 -4 91 C-4.08040527 90.45923828 -4.16081055 89.91847656 -4.24365234 89.36132812 C-6.04099436 77.12606978 -7.47206434 64.94087804 -8.26513672 52.59570312 C-8.33361816 51.63083984 -8.40209961 50.66597656 -8.47265625 49.671875 C-8.52687744 48.8169043 -8.58109863 47.96193359 -8.63696289 47.08105469 C-8.83205389 44.78456729 -8.83205389 44.78456729 -11 43 C-10.34 43 -9.68 43 -9 43 C-9 39.37 -9 35.74 -9 32 C-9.66 31.67 -10.32 31.34 -11 31 C-10.34 31 -9.68 31 -9 31 C-9.02320313 30.01902344 -9.04640625 29.03804687 -9.0703125 28.02734375 C-9.22268786 18.48483701 -8.51699997 9.42707123 -7 0 C-3.98968256 -0.93423645 -3.13349732 -1.04449911 0 0 Z " fill="#93BBD4" transform="translate(302,76)"/>
<path d="M0 0 C2.375 0.75 2.375 0.75 5 2 C5.309375 2.66 5.61875 3.32 5.9375 4 C7.52390087 6.98616635 9.84928069 6.96995715 13 8 C15.24837656 9.51078697 17.02200104 11.11619147 19 13 C19 13.66 19 14.32 19 15 C19.66 15 20.32 15 21 15 C22.57637006 16.94987565 24.05017239 18.89708766 25.5 20.9375 C28.19693381 25.06353603 28.19693381 25.06353603 32 28 C32 28.99 32 29.98 32 31 C32.66 31 33.32 31 34 31 C35.49629179 32.6785513 36.92292661 34.41958898 38.3125 36.1875 C40.64587094 39.14680066 42.92671773 41.92803025 45.6171875 44.5703125 C47.86368191 46.86100024 49.30842202 48.87511292 50.8125 51.6875 C51.44091797 52.83798828 51.44091797 52.83798828 52.08203125 54.01171875 C53 56 53 56 53 58 C53.66 58 54.32 58 55 58 C55.495 60.475 55.495 60.475 56 63 C51.71 64.98 47.42 66.96 43 69 C42.29875 67.370625 41.5975 65.74125 40.875 64.0625 C38.76607766 59.40729359 36.36649802 55.24534583 33.4296875 51.0703125 C32.42400137 49.61399105 31.47233962 48.11961013 30.5625 46.6015625 C28.84677001 43.74487207 26.99851682 41.00560061 25.125 38.25 C16 24.61300738 16 24.61300738 16 21 C15.34 21 14.68 21 14 21 C11 17.53846154 11 17.53846154 11 15 C10.34 15 9.68 15 9 15 C7.37890625 13.3203125 7.37890625 13.3203125 5.5625 11.125 C3.41599116 8.53806278 1.83223438 6.88815626 -1 5 C-0.67 3.35 -0.34 1.7 0 0 Z " fill="#B2C0D0" transform="translate(303,71)"/>
<path d="M0 0 C36.63 0 73.26 0 111 0 C111 2.97 111 5.94 111 9 C107.05703678 8.87870806 103.11417943 8.75440135 99.17138672 8.62768555 C97.19633538 8.56477232 95.2212154 8.50402525 93.24609375 8.44335938 C87.18748335 8.24743416 81.14292748 8.0209738 75.09295654 7.63217163 C61.08643273 6.74765011 47.05246869 6.66237877 33.02319336 6.46777344 C29.40214079 6.41674372 25.7811526 6.36149141 22.16015625 6.30664062 C15.10682702 6.20039617 8.0534395 6.09867816 1 6 C0.67 4.02 0.34 2.04 0 0 Z " fill="#F5D7C2" transform="translate(99,0)"/>
<path d="M0 0 C10.17244631 5.08622316 18.69873495 12.54810243 25 22 C25.30078125 23.9375 25.30078125 23.9375 25.3125 26 C25.32925781 26.680625 25.34601562 27.36125 25.36328125 28.0625 C24.88237074 30.62735606 24.114013 31.49200406 22 33 C13.87733919 34.12515036 6.84889903 29.74300296 0 26 C0 17.42 0 8.84 0 0 Z " fill="#250501" transform="translate(0,222)"/>
<path d="M0 0 C0.33 0 0.66 0 1 0 C1 18.15 1 36.3 1 55 C-0.87580913 52.49892116 -2.54163232 50.22130366 -4.12109375 47.57421875 C-4.49943359 46.94193359 -4.87777344 46.30964844 -5.26757812 45.65820312 C-5.65365234 45.00787109 -6.03972656 44.35753906 -6.4375 43.6875 C-6.81970703 43.04876953 -7.20191406 42.41003906 -7.59570312 41.75195312 C-10.11525489 37.5298859 -12.57197409 33.27531669 -15 29 C-14.56429688 28.34515625 -14.12859375 27.6903125 -13.6796875 27.015625 C-8.09627156 18.45922136 -3.07812542 9.78352541 0 0 Z " fill="#E9CAB3" transform="translate(359,44)"/>
<path d="M0 0 C1.09054687 0.39251953 1.09054687 0.39251953 2.203125 0.79296875 C1.873125 2.44296875 1.543125 4.09296875 1.203125 5.79296875 C0.543125 5.79296875 -0.116875 5.79296875 -0.796875 5.79296875 C-1.17779297 6.64568359 -1.17779297 6.64568359 -1.56640625 7.515625 C-3.38797635 10.88697538 -5.9298267 13.59146019 -8.43359375 16.4765625 C-10.01683383 18.70699721 -10.01683383 18.70699721 -9.7578125 21.3125 C-8.5876164 24.33312815 -7.10531995 25.85183091 -4.734375 28.04296875 C-3.4104211 29.28083075 -2.09466219 30.52770014 -0.796875 31.79296875 C-0.796875 32.12296875 -0.796875 32.45296875 -0.796875 32.79296875 C-9.376875 32.79296875 -17.956875 32.79296875 -26.796875 32.79296875 C-24.816875 29.49296875 -22.836875 26.19296875 -20.796875 22.79296875 C-19.51183612 18.17869865 -19.51183612 18.17869865 -20.421875 15.16796875 C-20.545625 14.38421875 -20.669375 13.60046875 -20.796875 12.79296875 C-19.359375 10.98046875 -19.359375 10.98046875 -17.796875 9.79296875 C-16.806875 10.12296875 -15.816875 10.45296875 -14.796875 10.79296875 C-14.796875 11.78296875 -14.796875 12.77296875 -14.796875 13.79296875 C-14.136875 13.79296875 -13.476875 13.79296875 -12.796875 13.79296875 C-12.71953125 13.24253906 -12.6421875 12.69210937 -12.5625 12.125 C-11.51680572 8.93990057 -9.7467032 6.99715962 -7.546875 4.48046875 C-6.39445312 3.12501953 -6.39445312 3.12501953 -5.21875 1.7421875 C-2.796875 -0.20703125 -2.796875 -0.20703125 0 0 Z " fill="#86AAC4" transform="translate(316.796875,253.20703125)"/>
<path d="M0 0 C6.55555556 2.33333333 6.55555556 2.33333333 9 6 C9.53753747 9.38931519 9.56084657 12.61270886 9 16 C6.10387761 19.12476363 3.48561434 20.83118019 -0.75 21.3125 C-4.80901885 20.92220973 -6.83301684 19.50412622 -10 17 C-11.72869779 13.54260443 -11.48966895 9.78024432 -11 6 C-7.96664287 1.14662859 -5.69713434 -0.50641194 0 0 Z " fill="#2A0F02" transform="translate(290,164)"/>
<path d="M0 0 C1.18737697 1.1788193 2.37330605 2.35912964 3.55224609 3.54638672 C4.91717409 4.91683887 6.2960566 6.27335196 7.67578125 7.62890625 C14.68264222 15.42468786 15.952048 21.1003639 15.5090332 31.54711914 C15.37525666 33.70061038 15.19283224 35.85099176 15 38 C13.37191406 38.68835938 13.37191406 38.68835938 11.7109375 39.390625 C10.26549027 40.01010239 8.82018528 40.62991175 7.375 41.25 C6.66214844 41.55035156 5.94929688 41.85070312 5.21484375 42.16015625 C0.79241858 44.06707353 -3.07702613 46.20317951 -7 49 C-7.66 48.67 -8.32 48.34 -9 48 C-7.08493268 40.89860249 -7.08493268 40.89860249 -4.31689453 38.60595703 C-2.27122729 37.46113408 -0.21537799 36.48956743 1.9375 35.5625 C2.65357422 35.22541016 3.36964844 34.88832031 4.10742188 34.54101562 C7.37805772 33.02846022 10.47895899 31.8028734 14 31 C13.505 28.525 13.505 28.525 13 26 C12.34 26 11.68 26 11 26 C9.7109375 24.35546875 9.7109375 24.35546875 8.375 22.1875 C7.92898438 21.47980469 7.48296875 20.77210937 7.0234375 20.04296875 C6 18 6 18 6 15 C5.443125 14.814375 4.88625 14.62875 4.3125 14.4375 C0.93245808 12.33639286 -0.85140381 9.29334006 -3 6 C-2.01 4.02 -1.02 2.04 0 0 Z " fill="#89AFCC" transform="translate(345,103)"/>
<path d="M0 0 C4.92293178 0.4842228 6.64569948 1.59028719 9.8125 5.375 C10.61639864 8.55039964 10.56629649 11.19294306 9.8125 14.375 C7.82022296 17.42567422 6.47567126 18.96926669 2.875 19.84765625 C-1.30922454 20.15671829 -2.80321865 19.69387176 -6.125 16.9375 C-6.805625 16.091875 -7.48625 15.24625 -8.1875 14.375 C-8.5175 14.045 -8.8475 13.715 -9.1875 13.375 C-9.5625 10.125 -9.5625 10.125 -9.1875 6.375 C-6.75 3.5 -6.75 3.5 -4.1875 1.375 C-3.1875 0.375 -3.1875 0.375 0 0 Z " fill="#2D1104" transform="translate(80.1875,173.625)"/>
<path d="M0 0 C3.7505196 3.62212344 7.09892896 7.39615076 10.3125 11.5 C10.76689453 12.05558594 11.22128906 12.61117187 11.68945312 13.18359375 C13.74088412 15.80572359 14.95499109 17.55351157 15.29296875 20.90625 C15.19628906 21.5971875 15.09960938 22.288125 15 23 C13.35 23.33 11.7 23.66 10 24 C6 18.375 6 18.375 6 15 C5.443125 14.814375 4.88625 14.62875 4.3125 14.4375 C0.93245808 12.33639286 -0.85140381 9.29334006 -3 6 C-2.01 4.02 -1.02 2.04 0 0 Z " fill="#82A7C1" transform="translate(345,103)"/>
<path d="M0 0 C2.10783501 0.76074502 4.21116757 1.53397356 6.3125 2.3125 C7.48425781 2.74175781 8.65601563 3.17101562 9.86328125 3.61328125 C12.63397163 4.83818173 14.21730883 5.59948084 16 8 C16 8.66 16 9.32 16 10 C10.72 10 5.44 10 0 10 C0 6.7 0 3.4 0 0 Z " fill="#270B02" transform="translate(0,263)"/>
<path d="M0 0 C20.46 0 40.92 0 62 0 C62 0.33 62 0.66 62 1 C46.82 1 31.64 1 16 1 C15.67 1.66 15.34 2.32 15 3 C9.5610835 3.21755666 5.12919186 3.10428384 0 1 C0 0.67 0 0.34 0 0 Z " fill="#D1B194" transform="translate(66,26)"/>
<path d="M0 0 C2 0 2 0 3.65625 1.64453125 C4.56890625 2.71767578 4.56890625 2.71767578 5.5 3.8125 C6.1084375 4.52019531 6.716875 5.22789062 7.34375 5.95703125 C9 8 9 8 11 11 C7.89810712 11.42575 5.08355042 11.61361622 2 11 C-0.24086044 8.95866823 -1.63425709 6.69030764 -3 4 C-2.67 3.34 -2.34 2.68 -2 2 C-1.67 2.33 -1.34 2.66 -1 3 C-0.67 2.01 -0.34 1.02 0 0 Z " fill="#83A5BD" transform="translate(305,275)"/>
<path d="M0 0 C1.32 0.33 2.64 0.66 4 1 C3.125 6.875 3.125 6.875 2 8 C-0.18639453 8.07258946 -2.37500389 8.08373783 -4.5625 8.0625 C-6.35880859 8.04896484 -6.35880859 8.04896484 -8.19140625 8.03515625 C-9.11824219 8.02355469 -10.04507812 8.01195312 -11 8 C-10.67 7.34 -10.34 6.68 -10 6 C-9.34 6 -8.68 6 -8 6 C-7.67 5.34 -7.34 4.68 -7 4 C-4.6859378 3.26924352 -2.35171131 2.59861742 0 2 C0 1.34 0 0.68 0 0 Z " fill="#CBAB8E" transform="translate(30,278)"/>
<path d="M0 0 C0.33 0.99 0.66 1.98 1 3 C-5.66666667 9 -12.33333333 15 -19 21 C-19.66 20.34 -20.32 19.68 -21 19 C-14.05310721 12.60556738 -7.08388048 6.24311688 0 0 Z " fill="#E1C1A7" transform="translate(47,36)"/>
<path d="M0 0 C0.66 0.33 1.32 0.66 2 1 C-3.45466718 7.66474693 -9.5575694 13.31481712 -16 19 C-16.66 18.67 -17.32 18.34 -18 18 C-12.06 12.06 -6.12 6.12 0 0 Z " fill="#2A1306" transform="translate(23,40)"/>
<path d="M0 0 C2.82613703 3.44024219 5.39131533 6.95122977 7.8125 10.6875 C8.43769531 11.64011719 9.06289063 12.59273437 9.70703125 13.57421875 C10.13371094 14.37472656 10.56039063 15.17523438 11 16 C10.67 16.66 10.34 17.32 10 18 C8.1819528 15.90041007 6.37049966 13.79571273 4.5625 11.6875 C4.04623047 11.09259766 3.52996094 10.49769531 2.99804688 9.88476562 C2.50498047 9.30791016 2.01191406 8.73105469 1.50390625 8.13671875 C1.04830322 7.60780029 0.5927002 7.07888184 0.12329102 6.53393555 C-1 5 -1 5 -2 2 C-1.34 2 -0.68 2 0 2 C0 1.34 0 0.68 0 0 Z " fill="#EFD6C2" transform="translate(332,82)"/>
<path d="M0 0 C2.75 0.25 2.75 0.25 5 1 C4.67 2.65 4.34 4.3 4 6 C3.34 6 2.68 6 2 6 C1.67 6.66 1.34 7.32 1 8 C0.01 8 -0.98 8 -2 8 C-2 7.01 -2 6.02 -2 5 C-2.66 4.67 -3.32 4.34 -4 4 C-2.3125 1.9375 -2.3125 1.9375 0 0 Z " fill="#85ABC7" transform="translate(314,253)"/>
<path d="M0 0 C3.78496138 1.51398455 4.0072198 2.0144396 6 6 C3.03 6 0.06 6 -3 6 C-1.125 1.125 -1.125 1.125 0 0 Z " fill="#ECD0BD" transform="translate(301,280)"/>
<path d="M0 0 C0.95261719 0.34933594 1.90523438 0.69867188 2.88671875 1.05859375 C4.15357779 1.51841666 5.4205087 1.97804162 6.6875 2.4375 C7.31333984 2.66759766 7.93917969 2.89769531 8.58398438 3.13476562 C12.03242308 4.38053667 15.3813479 5.39804449 19 6 C18.67 6.99 18.34 7.98 18 9 C11.630594 7.44303409 5.91382675 4.8018492 0 2 C0 1.34 0 0.68 0 0 Z " fill="#CCAC8F" transform="translate(2,249)"/>
<path d="M0 0 C0.66 0.66 1.32 1.32 2 2 C1.278125 2.70125 0.55625 3.4025 -0.1875 4.125 C-2.99823813 6.92770745 -5.49516226 9.92262792 -8 13 C-8.77734375 11.296875 -8.77734375 11.296875 -9 9 C-7.12890625 6.640625 -7.12890625 6.640625 -4.5625 4.25 C-3.71816406 3.45078125 -2.87382812 2.6515625 -2.00390625 1.828125 C-1.34261719 1.22484375 -0.68132813 0.6215625 0 0 Z " fill="#DDBDA3" transform="translate(25,57)"/>
<path d="M0 0 C-0.9375 2 -0.9375 2 -3 4 C-6.02534949 4.36475845 -8.96663814 4.22893297 -12 4 C-4.75 -1.69642857 -4.75 -1.69642857 0 0 Z " fill="#2B1204" transform="translate(33,282)"/>
<path d="M0 0 C5.28 0 10.56 0 16 0 C11.73609692 2.13195154 8.99274487 3.13032964 4.3125 3.0625 C3.10013672 3.04896484 3.10013672 3.04896484 1.86328125 3.03515625 C0.94095703 3.01775391 0.94095703 3.01775391 0 3 C0 2.01 0 1.02 0 0 Z " fill="#C7A789" transform="translate(0,273)"/>
<path d="M0 0 C1.65 0 3.3 0 5 0 C5 3.63 5 7.26 5 11 C3.35 10.67 1.7 10.34 0 10 C0.99 9.67 1.98 9.34 3 9 C3 6.36 3 3.72 3 1 C2.01 0.67 1.02 0.34 0 0 Z " fill="#240C00" transform="translate(288,108)"/>
<path d="M0 0 C4.47642077 -0.3949783 7.10177835 0.88140128 11 3 C11.99 3.33 12.98 3.66 14 4 C13.67 4.66 13.34 5.32 13 6 C11.58208592 5.54554036 10.16571954 5.08625056 8.75 4.625 C7.96109375 4.36976563 7.1721875 4.11453125 6.359375 3.8515625 C4.13372042 3.04826333 2.09068328 2.10288338 0 1 C0 0.67 0 0.34 0 0 Z " fill="#C1A183" transform="translate(0,262)"/>
<path d="M0 0 C0.33 0.99 0.66 1.98 1 3 C-1.64 5.97 -4.28 8.94 -7 12 C-7.66 11.34 -8.32 10.68 -9 10 C-6.03 6.7 -3.06 3.4 0 0 Z " fill="#DABA9E" transform="translate(14,69)"/>
<path d="M0 0 C2.6855594 2.6855594 3.06049974 5.37621328 4 9 C3.01 9.33 2.02 9.66 1 10 C0.63883954 8.5225254 0.28624952 7.04295325 -0.0625 5.5625 C-0.25972656 4.73878906 -0.45695312 3.91507813 -0.66015625 3.06640625 C-0.82837891 2.04353516 -0.82837891 2.04353516 -1 1 C-0.67 0.67 -0.34 0.34 0 0 Z " fill="#ECCEB6" transform="translate(44,198)"/>
<path d="M0 0 C-0.28875 0.556875 -0.5775 1.11375 -0.875 1.6875 C-2.05960441 4.02806407 -2.05960441 4.02806407 -3 6.6875 C-4 9 -4 9 -6 10 C-5.38909774 3.52443609 -5.38909774 3.52443609 -3.5625 1.0625 C-2 0 -2 0 0 0 Z " fill="#97BAD4" transform="translate(302,65)"/>
<path d="M0 0 C3.48331435 3.01887244 4.79157144 5.56909529 6 10 C3.35247996 7.42215154 1.05567935 5.08351902 -1 2 C-0.67 1.34 -0.34 0.68 0 0 Z " fill="#DCC7B3" transform="translate(337,90)"/>
<path d="M0 0 C-2.20052594 2.20052594 -3.05141896 2.3929392 -6 3 C-7.11375 3.2784375 -7.11375 3.2784375 -8.25 3.5625 C-8.8275 3.706875 -9.405 3.85125 -10 4 C-10 3.01 -10 2.02 -10 1 C-6.78548731 -0.60725635 -3.56387464 -0.05748185 0 0 Z " fill="#2E1507" transform="translate(187,199)"/>
<path d="M0 0 C0.598125 0.20625 1.19625 0.4125 1.8125 0.625 C0.8125 2.625 0.8125 2.625 -2.25 3.75 C-3.7040625 4.183125 -3.7040625 4.183125 -5.1875 4.625 C-5.1875 3.635 -5.1875 2.645 -5.1875 1.625 C-2.1875 -0.375 -2.1875 -0.375 0 0 Z " fill="#321A0A" transform="translate(166.1875,205.375)"/>
<path d="M0 0 C0.8125 1.6875 0.8125 1.6875 1 4 C-1.4375 6.75 -1.4375 6.75 -4 9 C-4.66 8.34 -5.32 7.68 -6 7 C-5.195625 6.21625 -4.39125 5.4325 -3.5625 4.625 C-1.01309583 2.28017144 -1.01309583 2.28017144 0 0 Z " fill="#DECFBC" transform="translate(300,176)"/>
</svg>
